<svg xmlns="http://www.w3.org/2000/svg" viewBox="0 0 64 64" width="64" height="64">
  <!-- Background circle -->
  <circle cx="32" cy="32" r="32" fill="#000000"/>
  <!-- Graduation cap - mortarboard -->
  <polygon points="32,14 8,26 32,38 56,26" fill="#CEA028"/>
  <!-- Cap brim shadow -->
  <polygon points="32,38 56,26 56,28 32,40 8,28 8,26" fill="#A37D1E"/>
  <!-- Tassel line -->
  <line x1="32" y1="14" x2="48" y2="20" stroke="#CEA028" stroke-width="1.5"/>
  <!-- Tassel -->
  <circle cx="48" cy="20" r="1.5" fill="#CEA028"/>
  <line x1="48" y1="20" x2="48" y2="30" stroke="#CEA028" stroke-width="1.5"/>
  <polygon points="45,30 48,34 51,30" fill="#CEA028"/>
  <!-- Book/base under cap -->
  <path d="M18,30 L18,42 Q32,50 46,42 L46,30 L32,38 Z" fill="#CEA028" opacity="0.7"/>
  <path d="M18,30 L18,42 Q32,50 46,42 L46,30 L32,38 Z" fill="none" stroke="#A37D1E" stroke-width="0.5"/>
</svg>
